<?xml version="1.0" encoding="UTF-8"?>
<svg xmlns="http://www.w3.org/2000/svg" width="960" height="620" viewBox="0 0 960 620" role="img">
  <title>01 - System Context</title>
  <desc>External actors and systems around the NextGen Tutors WordPress platform (BI 1.9.17 / NGC 1.9.5).</desc>
  <defs>
    <marker id="arrow" markerWidth="10" markerHeight="7" refX="9" refY="3.5" orient="auto">
      <polygon points="0 0, 10 3.5, 0 7" fill="#0D7377"/>
    </marker>
  </defs>
  <rect width="100%" height="100%" fill="#F7FBFC"/>
  <text x="24" y="36" font-family="Segoe UI, Arial, sans-serif" font-size="18" font-weight="700" fill="#0B2545">01 - System Context</text>
  <rect x="380" y="70" width="200" height="70" rx="6" fill="#E6F3F4" stroke="#0B2545" stroke-width="1.5"/>
  <text x="480" y="100" text-anchor="middle" font-family="Segoe UI, Arial, sans-serif" font-size="12" font-weight="600" fill="#0B2545">NextGen Tutors WP</text>
  <text x="480" y="118" text-anchor="middle" font-family="Segoe UI, Arial, sans-serif" font-size="10" fill="#5A6A7A">BI 1.9.17 + NGC 1.9.5</text>
  <rect x="40" y="220" width="140" height="55" rx="6" fill="#E6F3F4" stroke="#0B2545" stroke-width="1.5"/>
  <text x="110" y="252" text-anchor="middle" font-family="Segoe UI, Arial, sans-serif" font-size="12" font-weight="600" fill="#0B2545">Parents</text>
  <rect x="200" y="220" width="140" height="55" rx="6" fill="#E6F3F4" stroke="#0B2545" stroke-width="1.5"/>
  <text x="270" y="252" text-anchor="middle" font-family="Segoe UI, Arial, sans-serif" font-size="12" font-weight="600" fill="#0B2545">Tutors</text>
  <rect x="360" y="220" width="140" height="55" rx="6" fill="#E6F3F4" stroke="#0B2545" stroke-width="1.5"/>
  <text x="430" y="252" text-anchor="middle" font-family="Segoe UI, Arial, sans-serif" font-size="12" font-weight="600" fill="#0B2545">Ops / Admin</text>
  <rect x="520" y="220" width="140" height="55" rx="6" fill="#E6F3F4" stroke="#0B2545" stroke-width="1.5"/>
  <text x="590" y="252" text-anchor="middle" font-family="Segoe UI, Arial, sans-serif" font-size="12" font-weight="600" fill="#0B2545">Students</text>
  <rect x="80" y="400" width="160" height="60" rx="6" fill="#E6F3F4" stroke="#0B2545" stroke-width="1.5"/>
  <text x="160" y="425" text-anchor="middle" font-family="Segoe UI, Arial, sans-serif" font-size="12" font-weight="600" fill="#0B2545">PayFast</text>
  <text x="160" y="443" text-anchor="middle" font-family="Segoe UI, Arial, sans-serif" font-size="10" fill="#5A6A7A">Payments (ZAR)</text>
  <rect x="280" y="400" width="160" height="60" rx="6" fill="#E6F3F4" stroke="#0B2545" stroke-width="1.5"/>
  <text x="360" y="425" text-anchor="middle" font-family="Segoe UI, Arial, sans-serif" font-size="12" font-weight="600" fill="#0B2545">SMTP Provider</text>
  <text x="360" y="443" text-anchor="middle" font-family="Segoe UI, Arial, sans-serif" font-size="10" fill="#5A6A7A">FluentSMTP</text>
  <rect x="480" y="400" width="160" height="60" rx="6" fill="#E6F3F4" stroke="#0B2545" stroke-width="1.5"/>
  <text x="560" y="425" text-anchor="middle" font-family="Segoe UI, Arial, sans-serif" font-size="12" font-weight="600" fill="#0B2545">AI Providers</text>
  <text x="560" y="443" text-anchor="middle" font-family="Segoe UI, Arial, sans-serif" font-size="10" fill="#5A6A7A">BYOK optional</text>
  <rect x="700" y="400" width="200" height="60" rx="6" fill="#E6F3F4" stroke="#0B2545" stroke-width="1.5"/>
  <text x="800" y="425" text-anchor="middle" font-family="Segoe UI, Arial, sans-serif" font-size="12" font-weight="600" fill="#0B2545">Public Web</text>
  <text x="800" y="443" text-anchor="middle" font-family="Segoe UI, Arial, sans-serif" font-size="10" fill="#5A6A7A">nextgentutors.co.za</text>
  <line x1="420" y1="140" x2="110" y2="220" stroke="#0D7377" stroke-width="1.8" marker-end="url(#arrow)"/>
  <line x1="450" y1="140" x2="270" y2="220" stroke="#0D7377" stroke-width="1.8" marker-end="url(#arrow)"/>
  <line x1="480" y1="140" x2="430" y2="220" stroke="#0D7377" stroke-width="1.8" marker-end="url(#arrow)"/>
  <line x1="520" y1="140" x2="590" y2="220" stroke="#0D7377" stroke-width="1.8" marker-end="url(#arrow)"/>
  <line x1="430" y1="290" x2="160" y2="400" stroke="#0D7377" stroke-width="1.8" marker-end="url(#arrow)"/>
  <text x="250" y="350" font-family="Segoe UI, Arial, sans-serif" font-size="10" fill="#14919B">checkout / ITN</text>
  <line x1="470" y1="290" x2="360" y2="400" stroke="#0D7377" stroke-width="1.8" marker-end="url(#arrow)"/>
  <line x1="510" y1="290" x2="560" y2="400" stroke="#0D7377" stroke-width="1.8" marker-end="url(#arrow)"/>
  <line x1="560" y1="140" x2="800" y2="400" stroke="#0D7377" stroke-width="1.8" marker-end="url(#arrow)"/>
  <rect x="720" y="40" width="220" height="70" rx="4" fill="#FFFFFF" stroke="#0B2545" stroke-width="1"/>
  <text x="730" y="58" font-family="Segoe UI, Arial, sans-serif" font-size="11" font-weight="700" fill="#0B2545">Legend</text>
  <rect x="730" y="68" width="16" height="12" fill="#E6F3F4" stroke="#0B2545"/>
  <text x="752" y="78" font-family="Segoe UI, Arial, sans-serif" font-size="10" fill="#5A6A7A">Component / actor</text>
  <line x1="730" y1="95" x2="760" y2="95" stroke="#0D7377" stroke-width="1.8" marker-end="url(#arrow)"/>
  <text x="768" y="98" font-family="Segoe UI, Arial, sans-serif" font-size="10" fill="#5A6A7A">Flow</text>
  <text x="24" y="580" font-family="Segoe UI, Arial, sans-serif" font-size="10" fill="#5A6A7A">No secrets shown. Production host verification UNVERIFIED this session.</text>
</svg>
