<svg xmlns="http://www.w3.org/2000/svg" viewBox="0 0 1680 1200" font-family="Segoe UI, Roboto, Helvetica, Arial, sans-serif">
  <defs>
    <style>
      .t-title{font-size:30px;font-weight:700;fill:#0f172a}
      .t-sub{font-size:14px;fill:#64748b}
      .z-title{font-size:15px;font-weight:700;fill:#334155}
      .z-title-c{font-size:15px;font-weight:700;fill:#166534}
      .z-title-a{font-size:15px;font-weight:700;fill:#b45309}
      .mod{font-size:13px;font-weight:600;fill:#0f172a}
      .mod-s{font-size:10.5px;fill:#475569}
      .st{font-size:12px;font-weight:600;fill:#0f172a}
      .st-s{font-size:9.5px;fill:#475569}
      .flow{font-size:11px;font-weight:600;fill:#1e293b;paint-order:stroke;stroke:#f8fafc;stroke-width:3.5px;stroke-linejoin:round}
      .flow-g{font-size:11px;font-weight:700;fill:#7c2d12;paint-order:stroke;stroke:#f8fafc;stroke-width:3.5px;stroke-linejoin:round}
      .lg{font-size:12px;fill:#334155}
      .zone{fill:#ffffff;stroke:#cbd5e1;stroke-width:1.5}
    </style>
    <marker id="aSlate" markerWidth="10" markerHeight="10" refX="8" refY="3" orient="auto"><path d="M0,0 L8,3 L0,6 z" fill="#475569"/></marker>
    <marker id="aBlue" markerWidth="10" markerHeight="10" refX="8" refY="3" orient="auto"><path d="M0,0 L8,3 L0,6 z" fill="#0369a1"/></marker>
    <marker id="aGold" markerWidth="11" markerHeight="11" refX="8" refY="3" orient="auto"><path d="M0,0 L8,3 L0,6 z" fill="#b45309"/></marker>
    <marker id="aGray" markerWidth="10" markerHeight="10" refX="8" refY="3" orient="auto"><path d="M0,0 L8,3 L0,6 z" fill="#64748b"/></marker>
  </defs>

  <rect x="0" y="0" width="1680" height="1200" fill="#f8fafc"/>

  <!-- Title -->
  <text x="40" y="44" class="t-title">NextGen Tutors &#8212; System &amp; External Flows</text>
  <text x="40" y="66" class="t-sub">One product &#183; five deployable WordPress packages &#183; governed AI bridge &#183; BYOK model registry &#8212; 2026-07</text>

  <!-- Legend -->
  <rect x="1178" y="14" width="462" height="58" rx="10" class="zone"/>
  <line x1="1196" y1="32" x2="1236" y2="32" stroke="#0369a1" stroke-width="2" marker-end="url(#aBlue)"/>
  <text x="1244" y="36" class="lg">Sync request (HTTP / REST)</text>
  <line x1="1196" y1="52" x2="1236" y2="52" stroke="#64748b" stroke-width="2" stroke-dasharray="6 4" marker-end="url(#aGray)"/>
  <text x="1244" y="56" class="lg">Async domain event / outbox</text>
  <line x1="1470" y1="42" x2="1510" y2="42" stroke="#b45309" stroke-width="3" marker-end="url(#aGold)"/>
  <text x="1518" y="46" class="lg">Signed external egress</text>

  <!-- ================= CROSSING FLOWS (drawn first, pass behind data stores) ================= -->
  <!-- BYOK egress: AI Suite -> LLM providers, down the channel between Companion and AI-Integration -->
  <path d="M1031,418 H1067 V996 L1052,1008" fill="none" stroke="#b45309" stroke-width="3" marker-end="url(#aGold)"/>
  <text x="1072" y="900" class="flow-g" transform="rotate(90 1072 900)">BYOK egress &#183; /chat/completions &#183; encrypted keys &#183; allowlist &#183; PII redaction</text>

  <!-- Adapters -> external (these pass behind the data-store cylinders) -->
  <path d="M150,684 V1008" fill="none" stroke="#b45309" stroke-width="2.5" marker-end="url(#aGold)"/>
  <path d="M170,1008 V684" fill="none" stroke="#b45309" stroke-width="1" stroke-dasharray="3 3"/>
  <text x="150" y="905" class="flow-g" transform="rotate(90 150 905)">checkout + ITN (replay-hardened)</text>

  <path d="M382,684 V1008" fill="none" stroke="#b45309" stroke-width="2.5" marker-end="url(#aGold)"/>
  <text x="382" y="905" class="flow-g" transform="rotate(90 382 905)">calendar sync</text>

  <path d="M560,684 L587,1008" fill="none" stroke="#b45309" stroke-width="2.5" marker-end="url(#aGold)"/>
  <text x="560" y="905" class="flow-g" transform="rotate(90 560 905)">CRM (table-guarded)</text>

  <path d="M800,684 L797,1008" fill="none" stroke="#b45309" stroke-width="2.5" marker-end="url(#aGold)"/>
  <text x="800" y="905" class="flow-g" transform="rotate(90 800 905)">LMS enrol</text>

  <!-- Companion / AI-Integration -> data stores -->
  <path d="M250,762 L200,838" fill="none" stroke="#475569" stroke-width="2" marker-end="url(#aSlate)"/>
  <text x="150" y="805" class="flow">persist ngc_*</text>
  <path d="M470,762 L520,838" fill="none" stroke="#475569" stroke-width="2" marker-end="url(#aSlate)"/>
  <path d="M917,762 L805,838" fill="none" stroke="#475569" stroke-width="2" marker-end="url(#aSlate)"/>
  <text x="820" y="805" class="flow">keys (encrypted)</text>
  <path d="M1350,770 L1100,838" fill="none" stroke="#475569" stroke-width="2" marker-end="url(#aSlate)"/>
  <text x="1160" y="812" class="flow">outbox / results</text>
  <path d="M1480,770 L1420,838" fill="none" stroke="#475569" stroke-width="2" marker-end="url(#aSlate)"/>

  <!-- Api Client -> agents-api  &  agents-api -> Callback Controller -->
  <path d="M1500,626 H1520 V996 L1420,1008" fill="none" stroke="#b45309" stroke-width="3" marker-end="url(#aGold)"/>
  <text x="1536" y="820" class="flow-g" transform="rotate(90 1536 820)">HMAC v1.1 signed &#183; POST /v1/events</text>
  <path d="M1380,1008 V996 H1560 V653 L1630,653" fill="none" stroke="#b45309" stroke-width="3" marker-end="url(#aGold)"/>
  <text x="1576" y="820" class="flow-g" transform="rotate(90 1576 820)">signed callback &#183; ngtai/v1</text>

  <!-- Plugin Manager -> installs stack (behind) -->
  <path d="M1162,332 V300 H1655 V978 L1400,1008" fill="none" stroke="#64748b" stroke-width="1.6" stroke-dasharray="6 4" marker-end="url(#aGray)"/>

  <!-- ================= ACTORS ================= -->
  <rect x="40" y="80" width="1620" height="110" rx="14" fill="#f0f9ff" stroke="#7dd3fc" stroke-width="1.5"/>
  <text x="60" y="104" class="z-title">Actors &amp; Clients</text>
  <rect x="70" y="116" width="520" height="58" rx="10" fill="#e0f2fe" stroke="#0369a1"/>
  <text x="330" y="140" text-anchor="middle" class="mod">Web dashboards</text>
  <text x="330" y="158" text-anchor="middle" class="mod-s">Parent &#183; Student &#183; Tutor &#183; Admin (browser SPA + WP admin)</text>
  <rect x="620" y="116" width="250" height="58" rx="10" fill="#e0f2fe" stroke="#0369a1"/>
  <text x="745" y="140" text-anchor="middle" class="mod">Prometheus / APM</text>
  <text x="745" y="158" text-anchor="middle" class="mod-s">metrics scraper (Bearer)</text>
  <rect x="890" y="116" width="250" height="58" rx="10" fill="#e0f2fe" stroke="#0369a1"/>
  <text x="1015" y="140" text-anchor="middle" class="mod">WP-CLI / Demo Ops</text>
  <text x="1015" y="158" text-anchor="middle" class="mod-s">wp ngc verify &#183; demo_seed</text>

  <!-- ================= WORDPRESS RUNTIME ================= -->
  <rect x="40" y="210" width="1620" height="560" rx="14" fill="#fdfdfd" stroke="#94a3b8" stroke-width="1.8"/>
  <text x="60" y="234" class="z-title">WordPress Runtime &#8212; single site</text>

  <!-- Presentation lane -->
  <text x="60" y="256" class="mod-s" font-weight="700">Presentation &amp; operator packages</text>
  <rect x="70" y="264" width="360" height="70" rx="10" fill="#ede9fe" stroke="#6d28d9"/>
  <text x="250" y="292" text-anchor="middle" class="mod">BeyondInfinity theme</text>
  <text x="250" y="310" text-anchor="middle" class="mod-s">templates &#183; tokens &#183; page defaults</text>
  <text x="250" y="326" text-anchor="middle" class="mod-s">[bi_*] / consumes [ngc_*]</text>
  <rect x="450" y="264" width="300" height="70" rx="10" fill="#ede9fe" stroke="#6d28d9"/>
  <text x="600" y="292" text-anchor="middle" class="mod">ui-library &#183; NGT_UI</text>
  <text x="600" y="310" text-anchor="middle" class="mod-s">Magic UI catalog + kind renderers</text>
  <text x="600" y="326" text-anchor="middle" class="mod-s">[ngt_ui] &#183; [ngt_income_calculator]</text>
  <rect x="770" y="264" width="280" height="70" rx="10" fill="#ede9fe" stroke="#6d28d9"/>
  <text x="910" y="292" text-anchor="middle" class="mod">Shortcodes bridge</text>
  <text x="910" y="310" text-anchor="middle" class="mod-s">[ngc_*] &#8594; Companion providers</text>
  <text x="910" y="326" text-anchor="middle" class="mod-s">NGC_NGT_UI_Bridge</text>
  <rect x="1075" y="264" width="175" height="70" rx="10" fill="#f1f5f9" stroke="#64748b"/>
  <text x="1162" y="290" text-anchor="middle" class="mod">Plugin Manager</text>
  <text x="1162" y="307" text-anchor="middle" class="mod-s">install/activate stack</text>
  <text x="1162" y="323" text-anchor="middle" class="mod-s">respects is_denied()</text>
  <rect x="1262" y="264" width="175" height="70" rx="10" fill="#f1f5f9" stroke="#64748b"/>
  <text x="1349" y="290" text-anchor="middle" class="mod">Html Importer</text>
  <text x="1349" y="307" text-anchor="middle" class="mod-s">static HTML &#8594; pages</text>
  <text x="1349" y="323" text-anchor="middle" class="mod-s">dry-run &#183; rollback</text>
  <rect x="1449" y="264" width="181" height="70" rx="10" fill="#f1f5f9" stroke="#64748b"/>
  <text x="1539" y="290" text-anchor="middle" class="mod">Automation Hub</text>
  <text x="1539" y="307" text-anchor="middle" class="mod-s">events; defers payouts</text>
  <text x="1539" y="323" text-anchor="middle" class="mod-s">to Companion scheduler</text>

  <!-- Companion box -->
  <rect x="60" y="352" width="1000" height="418" rx="12" fill="#f0fdf4" stroke="#15803d" stroke-width="2"/>
  <text x="76" y="374" class="z-title-c">NextGenTutors-Companion &#8212; domain authority &#183; ngc/v1 REST &#183; ngc_* tables</text>

  <!-- r1 -->
  <rect x="89" y="392" width="228" height="52" rx="8" fill="#ffffff" stroke="#16a34a"/>
  <text x="203" y="414" text-anchor="middle" class="mod">Matching</text>
  <text x="203" y="431" text-anchor="middle" class="mod-s">scoring &#183; find-tutor</text>
  <rect x="327" y="392" width="228" height="52" rx="8" fill="#ffffff" stroke="#16a34a"/>
  <text x="441" y="414" text-anchor="middle" class="mod">Bookings</text>
  <text x="441" y="431" text-anchor="middle" class="mod-s">conflict check &#183; transitions</text>
  <rect x="565" y="392" width="228" height="52" rx="8" fill="#ffffff" stroke="#16a34a"/>
  <text x="679" y="414" text-anchor="middle" class="mod">REST &#183; ngc/v1</text>
  <text x="679" y="431" text-anchor="middle" class="mod-s">NGC_Rest controllers</text>
  <rect x="803" y="392" width="228" height="52" rx="8" fill="#fffbeb" stroke="#d97706" stroke-width="1.6"/>
  <text x="917" y="412" text-anchor="middle" class="mod">AI Suite (BYOK)</text>
  <text x="917" y="428" text-anchor="middle" class="mod-s">Models &#183; Agents &#183; Chat</text>
  <text x="917" y="440" text-anchor="middle" class="mod-s">BIA_Policy &#183; NGC_Crypto</text>

  <!-- r2 -->
  <rect x="89" y="452" width="228" height="52" rx="8" fill="#ffffff" stroke="#16a34a"/>
  <text x="203" y="474" text-anchor="middle" class="mod">Payments / Wallet</text>
  <text x="203" y="491" text-anchor="middle" class="mod-s">invoices &#183; payouts &#183; ledger</text>
  <rect x="327" y="452" width="228" height="52" rx="8" fill="#ffffff" stroke="#16a34a"/>
  <text x="441" y="474" text-anchor="middle" class="mod">Fraud Engine</text>
  <text x="441" y="491" text-anchor="middle" class="mod-s">signals &#183; cases</text>
  <rect x="565" y="452" width="228" height="52" rx="8" fill="#ffffff" stroke="#16a34a"/>
  <text x="679" y="474" text-anchor="middle" class="mod">Safeguarding</text>
  <text x="679" y="491" text-anchor="middle" class="mod-s">minor protection &#183; alerts</text>
  <rect x="803" y="452" width="228" height="52" rx="8" fill="#ffffff" stroke="#16a34a"/>
  <text x="917" y="474" text-anchor="middle" class="mod">Child Learners</text>
  <text x="917" y="491" text-anchor="middle" class="mod-s">minor accounts &#183; consent</text>

  <!-- r3 -->
  <rect x="89" y="512" width="466" height="52" rx="8" fill="#ffffff" stroke="#16a34a"/>
  <text x="322" y="534" text-anchor="middle" class="mod">Workflows &#183; Domain Event Bridge (outbox)</text>
  <text x="322" y="551" text-anchor="middle" class="mod-s">match.proposed &#183; booking.created &#183; lesson.completed &#183; payment.received</text>
  <rect x="565" y="512" width="228" height="52" rx="8" fill="#ffffff" stroke="#16a34a"/>
  <text x="679" y="534" text-anchor="middle" class="mod">Privacy (PRIV-001)</text>
  <text x="679" y="551" text-anchor="middle" class="mod-s">exporters &#183; retention cron</text>
  <rect x="803" y="512" width="228" height="52" rx="8" fill="#ffffff" stroke="#16a34a"/>
  <text x="917" y="534" text-anchor="middle" class="mod">Metrics (OBS-001)</text>
  <text x="917" y="551" text-anchor="middle" class="mod-s">/metrics &#183; +hourly webhook</text>

  <!-- r4 -->
  <rect x="89" y="572" width="466" height="52" rx="8" fill="#ffffff" stroke="#16a34a"/>
  <text x="322" y="594" text-anchor="middle" class="mod">Demo (Phase 14) &#8212; relational seeding via domain services</text>
  <text x="322" y="611" text-anchor="middle" class="mod-s">NGC_Demo_Seeder / Clock / Registry / Verifier &#183; is_demo labels</text>
  <rect x="565" y="572" width="228" height="52" rx="8" fill="#ffffff" stroke="#16a34a"/>
  <text x="679" y="594" text-anchor="middle" class="mod">Access / Rate-limit</text>
  <text x="679" y="611" text-anchor="middle" class="mod-s">object-level &#183; public throttle</text>
  <rect x="803" y="572" width="228" height="52" rx="8" fill="#ffffff" stroke="#16a34a"/>
  <text x="917" y="594" text-anchor="middle" class="mod">Audit / System Log</text>
  <text x="917" y="611" text-anchor="middle" class="mod-s">correlation IDs</text>

  <!-- r5 adapters -->
  <rect x="89" y="632" width="942" height="52" rx="8" fill="#ecfdf5" stroke="#059669" stroke-width="1.6"/>
  <text x="560" y="654" text-anchor="middle" class="mod">Integration Adapters (NGC_Integration_Adapter &#183; swappable)</text>
  <text x="560" y="671" text-anchor="middle" class="mod-s">PayFast (payments/ITN) &#183; Amelia (calendar) &#183; FluentCRM (marketing, table-guarded) &#183; MasterStudy (LMS)</text>

  <!-- AI-Integration box -->
  <rect x="1075" y="352" width="555" height="418" rx="12" fill="#fffbeb" stroke="#b45309" stroke-width="2"/>
  <text x="1091" y="374" class="z-title-a">NextGenTutors-AI-Integration &#8212; signed bridge &#183; ngtai/v1 &#183; ngtai_* tables</text>
  <rect x="1092" y="392" width="520" height="42" rx="7" fill="#ffffff" stroke="#d97706"/>
  <text x="1102" y="411" class="st">1 &#183; Event Mapper</text>
  <text x="1102" y="426" class="st-s">Companion event &#8594; versioned contract (match.requested)</text>
  <rect x="1092" y="440" width="520" height="42" rx="7" fill="#ffffff" stroke="#d97706"/>
  <text x="1102" y="459" class="st">2 &#183; Redactor</text>
  <text x="1102" y="474" class="st-s">profiles: default / minor / finance / safeguarding + payload allowlist</text>
  <rect x="1092" y="488" width="520" height="42" rx="7" fill="#ffffff" stroke="#d97706"/>
  <text x="1102" y="507" class="st">3 &#183; Policy Gate</text>
  <text x="1102" y="522" class="st-s">ALLOW &#183; DENY &#183; REQUIRE_APPROVAL &#183; honours global pause</text>
  <rect x="1092" y="536" width="520" height="42" rx="7" fill="#ffffff" stroke="#d97706"/>
  <text x="1102" y="555" class="st">4 &#183; Delivery Repository (durable outbox)</text>
  <text x="1102" y="570" class="st-s">retry 0/30/120/600/1800s &#183; dead-letter &#183; claim lock</text>
  <rect x="1092" y="584" width="520" height="42" rx="7" fill="#fff7ed" stroke="#c2410c" stroke-width="1.6"/>
  <text x="1102" y="603" class="st">5 &#183; Api Client</text>
  <text x="1102" y="618" class="st-s">HMAC v1.1 &#183; HTTPS &#183; host allowlist &#183; circuit breaker</text>
  <rect x="1092" y="632" width="520" height="42" rx="7" fill="#fff7ed" stroke="#c2410c" stroke-width="1.6"/>
  <text x="1102" y="651" class="st">6 &#183; Callback Controller</text>
  <text x="1102" y="666" class="st-s">verify signature &#183; nonce store &#183; idempotency (exactly-once)</text>
  <rect x="1092" y="680" width="520" height="42" rx="7" fill="#ffffff" stroke="#d97706"/>
  <text x="1102" y="699" class="st">7 &#183; Result Repository + Approvals</text>
  <text x="1102" y="714" class="st-s">versioned results &#183; execution actions always denied &#183; human decision</text>

  <!-- ================= DATA STORES ================= -->
  <rect x="40" y="792" width="1620" height="150" rx="14" fill="#f8fafc" stroke="#94a3b8" stroke-width="1.5"/>
  <text x="60" y="814" class="z-title">Persistence &#8212; MySQL (WordPress DB)</text>

  <!-- cylinder helper drawn inline -->
  <g>
    <ellipse cx="220" cy="846" rx="150" ry="10" fill="#e2e8f0" stroke="#475569"/>
    <path d="M70,846 v66 a150,10 0 0 0 300,0 v-66" fill="#f1f5f9" stroke="#475569"/>
    <ellipse cx="220" cy="846" rx="150" ry="10" fill="#e2e8f0" stroke="#475569"/>
    <text x="220" y="872" text-anchor="middle" class="st">ngc_* domain</text>
    <text x="220" y="890" text-anchor="middle" class="st-s">matches &#183; bookings &#183; invoices</text>
    <text x="220" y="904" text-anchor="middle" class="st-s">wallet_ledger &#183; payouts &#183; reviews &#183; child_learners</text>
  </g>
  <g>
    <ellipse cx="525" cy="846" rx="135" ry="10" fill="#e2e8f0" stroke="#475569"/>
    <path d="M390,846 v66 a135,10 0 0 0 270,0 v-66" fill="#f1f5f9" stroke="#475569"/>
    <ellipse cx="525" cy="846" rx="135" ry="10" fill="#e2e8f0" stroke="#475569"/>
    <text x="525" y="872" text-anchor="middle" class="st">ngc_* governance</text>
    <text x="525" y="890" text-anchor="middle" class="st-s">audit_log &#183; system_log</text>
    <text x="525" y="904" text-anchor="middle" class="st-s">consent_log &#183; analytics_events</text>
  </g>
  <g>
    <ellipse cx="805" cy="846" rx="125" ry="10" fill="#fde68a" stroke="#b45309"/>
    <path d="M680,846 v66 a125,10 0 0 0 250,0 v-66" fill="#fffbeb" stroke="#b45309"/>
    <ellipse cx="805" cy="846" rx="125" ry="10" fill="#fde68a" stroke="#b45309"/>
    <text x="805" y="872" text-anchor="middle" class="st">wp_options (encrypted)</text>
    <text x="805" y="890" text-anchor="middle" class="st-s">ngc_ai_models &#183; ngc_ai_keys</text>
    <text x="805" y="904" text-anchor="middle" class="st-s">AES-256-GCM / sodium &#183; bia_policy</text>
  </g>
  <g>
    <ellipse cx="1100" cy="846" rx="150" ry="10" fill="#fde68a" stroke="#b45309"/>
    <path d="M950,846 v66 a150,10 0 0 0 300,0 v-66" fill="#fffbeb" stroke="#b45309"/>
    <ellipse cx="1100" cy="846" rx="150" ry="10" fill="#fde68a" stroke="#b45309"/>
    <text x="1100" y="872" text-anchor="middle" class="st">ngtai_* core</text>
    <text x="1100" y="890" text-anchor="middle" class="st-s">deliveries &#183; agent_results</text>
    <text x="1100" y="904" text-anchor="middle" class="st-s">approvals &#183; callback_nonces</text>
  </g>
  <g>
    <ellipse cx="1430" cy="846" rx="160" ry="10" fill="#fde68a" stroke="#b45309"/>
    <path d="M1270,846 v66 a160,10 0 0 0 320,0 v-66" fill="#fffbeb" stroke="#b45309"/>
    <ellipse cx="1430" cy="846" rx="160" ry="10" fill="#fde68a" stroke="#b45309"/>
    <text x="1430" y="872" text-anchor="middle" class="st">ngtai_* support</text>
    <text x="1430" y="890" text-anchor="middle" class="st-s">idempotency &#183; ngtai_audit</text>
    <text x="1430" y="904" text-anchor="middle" class="st-s">nonce expiry &#183; correlation IDs</text>
  </g>

  <!-- ================= EXTERNAL ================= -->
  <rect x="40" y="962" width="1620" height="210" rx="14" fill="#fef2f2" stroke="#f87171" stroke-width="1.5"/>
  <text x="60" y="986" class="z-title">External &amp; Sandbox Systems</text>
  <rect x="70" y="1008" width="200" height="120" rx="10" fill="#fee2e2" stroke="#b91c1c"/>
  <text x="170" y="1050" text-anchor="middle" class="mod">PayFast</text>
  <text x="170" y="1070" text-anchor="middle" class="mod-s">payments gateway</text>
  <text x="170" y="1086" text-anchor="middle" class="mod-s">checkout + ITN</text>
  <text x="170" y="1102" text-anchor="middle" class="mod-s">sandbox / live</text>
  <rect x="290" y="1008" width="185" height="120" rx="10" fill="#fee2e2" stroke="#b91c1c"/>
  <text x="382" y="1054" text-anchor="middle" class="mod">Amelia</text>
  <text x="382" y="1074" text-anchor="middle" class="mod-s">calendar / booking</text>
  <text x="382" y="1090" text-anchor="middle" class="mod-s">availability sync</text>
  <rect x="495" y="1008" width="185" height="120" rx="10" fill="#fee2e2" stroke="#b91c1c"/>
  <text x="587" y="1054" text-anchor="middle" class="mod">FluentCRM</text>
  <text x="587" y="1074" text-anchor="middle" class="mod-s">marketing CRM</text>
  <text x="587" y="1090" text-anchor="middle" class="mod-s">lists / tags / contacts</text>
  <rect x="700" y="1008" width="195" height="120" rx="10" fill="#fee2e2" stroke="#b91c1c"/>
  <text x="797" y="1054" text-anchor="middle" class="mod">MasterStudy LMS</text>
  <text x="797" y="1074" text-anchor="middle" class="mod-s">courses / enrolments</text>
  <text x="797" y="1090" text-anchor="middle" class="mod-s">learner progress</text>
  <rect x="915" y="1008" width="270" height="120" rx="10" fill="#ffedd5" stroke="#c2410c" stroke-width="1.8"/>
  <text x="1050" y="1050" text-anchor="middle" class="mod">LLM Providers (BYOK)</text>
  <text x="1050" y="1072" text-anchor="middle" class="mod-s">OpenAI &#183; Anthropic &#183; any</text>
  <text x="1050" y="1088" text-anchor="middle" class="mod-s">OpenAI-compatible /v1</text>
  <text x="1050" y="1104" text-anchor="middle" class="mod-s">direct from AI Suite</text>
  <rect x="1205" y="1008" width="385" height="120" rx="10" fill="#ffedd5" stroke="#c2410c" stroke-width="1.8"/>
  <text x="1397" y="1050" text-anchor="middle" class="mod">agents-api platform (hosted)</text>
  <text x="1397" y="1072" text-anchor="middle" class="mod-s">LiteLLM &#183; RAGFlow &#183; governed agents</text>
  <text x="1397" y="1090" text-anchor="middle" class="mod-s">recommends only &#8212; platform decides</text>
  <text x="1397" y="1106" text-anchor="middle" class="mod-s">reached ONLY via signed AI-Integration bridge</text>

  <!-- ================= ADJACENT FLOWS (front) ================= -->
  <!-- Web -> Theme -->
  <path d="M300,174 L255,264" fill="none" stroke="#0369a1" stroke-width="2" marker-end="url(#aBlue)"/>
  <text x="228" y="222" class="flow">page render</text>
  <!-- Web -> REST -->
  <path d="M470,174 C520,300 620,320 679,390" fill="none" stroke="#0369a1" stroke-width="2" marker-end="url(#aBlue)"/>
  <text x="560" y="300" class="flow">ngc/v1 REST &#183; cookie / app-password</text>
  <!-- Theme -> ui-library -->
  <path d="M430,299 L450,299" fill="none" stroke="#0369a1" stroke-width="2" marker-end="url(#aBlue)"/>
  <!-- shortcodes -> Companion -->
  <path d="M910,334 L910,392" fill="none" stroke="#0369a1" stroke-width="2" marker-end="url(#aBlue)"/>
  <text x="918" y="360" class="flow">[ngc_*] providers</text>
  <!-- Prometheus -> Metrics -->
  <path d="M745,174 C780,340 860,470 917,512" fill="none" stroke="#0369a1" stroke-width="2" marker-end="url(#aBlue)"/>
  <text x="742" y="360" class="flow">GET /metrics &#183; Bearer token</text>
  <!-- WP-CLI -> Companion -->
  <path d="M1010,174 C980,280 960,330 955,352" fill="none" stroke="#0369a1" stroke-width="2" marker-end="url(#aBlue)"/>
  <text x="965" y="250" class="flow">wp ngc verify / demo</text>

  <!-- Domain Event Bridge -> Event Mapper (async) -->
  <path d="M555,528 C900,528 950,413 1092,413" fill="none" stroke="#64748b" stroke-width="2" stroke-dasharray="6 4" marker-end="url(#aGray)"/>
  <text x="720" y="500" class="flow">ngc_domain_event (async outbox)</text>

  <!-- Result applied -> Companion (async) -->
  <path d="M1092,701 C980,701 1040,624 1031,600" fill="none" stroke="#64748b" stroke-width="2" stroke-dasharray="6 4" marker-end="url(#aGray)"/>
  <text x="905" y="720" class="flow">ngtai_agent_result_applied &#8594; approval</text>
</svg>
