<?xml version="1.0" encoding="UTF-8"?>
<svg xmlns="http://www.w3.org/2000/svg" width="1052" height="320" viewBox="0 0 1052 320" role="img" aria-label="Parent Journey">
  <defs><marker id="arrow" markerWidth="8" markerHeight="8" refX="7" refY="4" orient="auto"><path d="M0,0 L8,4 L0,8 z" fill="#4A5568"/></marker></defs>
  <rect width="100%" height="100%" fill="#FAFBFC"/>
  
    <text x="24" y="36" font-family="Sora,Segoe UI,sans-serif" font-size="20" font-weight="600" fill="#1A202C">Parent Journey</text>
    <text x="24" y="58" font-family="Inter,Segoe UI,sans-serif" font-size="12" fill="#4A5568">User journey map · Phase 3</text>
    <rect x="882" y="20" width="146" height="28" rx="14" fill="#FEF3C7" stroke="#F59E0B" stroke-width="1.5"/>
    <text x="955" y="39" text-anchor="middle" font-family="Inter,Segoe UI,sans-serif" font-size="11" font-weight="600" fill="#1A202C">PARTIAL</text>
    <line x1="40" y1="170" x2="1012" y2="170" stroke="#E1E8ED" stroke-width="2"/><circle cx="56" cy="170" r="10" fill="#D1FAE5" stroke="#10B981" stroke-width="2"/><line x1="68" y1="170" x2="148" y2="170" stroke="#4A5568" stroke-width="2" marker-end="url(#arrow)"/><text x="56" y="138" text-anchor="middle" font-family="Inter,sans-serif" font-size="11" font-weight="600" fill="#1A202C">Awareness</text><text x="56" y="202" text-anchor="middle" font-family="Inter,sans-serif" font-size="10" fill="#4A5568">Visit site</text><rect x="18" y="214" width="76" height="18" rx="9" fill="#D1FAE5" stroke="#10B981"/><text x="56" y="227" text-anchor="middle" font-family="Inter,sans-serif" font-size="9" font-weight="600">VERIFIED</text><circle cx="160" cy="170" r="10" fill="#D1FAE5" stroke="#10B981" stroke-width="2"/><line x1="172" y1="170" x2="252" y2="170" stroke="#4A5568" stroke-width="2" marker-end="url(#arrow)"/><text x="160" y="138" text-anchor="middle" font-family="Inter,sans-serif" font-size="11" font-weight="600" fill="#1A202C">Search</text><text x="160" y="202" text-anchor="middle" font-family="Inter,sans-serif" font-size="10" fill="#4A5568">Find a tutor</text><rect x="122" y="214" width="76" height="18" rx="9" fill="#D1FAE5" stroke="#10B981"/><text x="160" y="227" text-anchor="middle" font-family="Inter,sans-serif" font-size="9" font-weight="600">VERIFIED</text><circle cx="264" cy="170" r="10" fill="#D1FAE5" stroke="#10B981" stroke-width="2"/><line x1="276" y1="170" x2="356" y2="170" stroke="#4A5568" stroke-width="2" marker-end="url(#arrow)"/><text x="264" y="138" text-anchor="middle" font-family="Inter,sans-serif" font-size="11" font-weight="600" fill="#1A202C">Request</text><text x="264" y="202" text-anchor="middle" font-family="Inter,sans-serif" font-size="10" fill="#4A5568">Submit intake</text><rect x="226" y="214" width="76" height="18" rx="9" fill="#D1FAE5" stroke="#10B981"/><text x="264" y="227" text-anchor="middle" font-family="Inter,sans-serif" font-size="9" font-weight="600">VERIFIED</text><circle cx="368" cy="170" r="10" fill="#D1FAE5" stroke="#10B981" stroke-width="2"/><line x1="380" y1="170" x2="460" y2="170" stroke="#4A5568" stroke-width="2" marker-end="url(#arrow)"/><text x="368" y="138" text-anchor="middle" font-family="Inter,sans-serif" font-size="11" font-weight="600" fill="#1A202C">Notify</text><text x="368" y="202" text-anchor="middle" font-family="Inter,sans-serif" font-size="10" fill="#4A5568">Workflow dispatc</text><rect x="330" y="214" width="76" height="18" rx="9" fill="#D1FAE5" stroke="#10B981"/><text x="368" y="227" text-anchor="middle" font-family="Inter,sans-serif" font-size="9" font-weight="600">VERIFIED</text><circle cx="472" cy="170" r="10" fill="#FEF3C7" stroke="#F59E0B" stroke-width="2"/><line x1="484" y1="170" x2="564" y2="170" stroke="#4A5568" stroke-width="2" marker-end="url(#arrow)"/><text x="472" y="138" text-anchor="middle" font-family="Inter,sans-serif" font-size="11" font-weight="600" fill="#1A202C">Match</text><text x="472" y="202" text-anchor="middle" font-family="Inter,sans-serif" font-size="10" fill="#4A5568">Staff matching</text><rect x="434" y="214" width="76" height="18" rx="9" fill="#FEF3C7" stroke="#F59E0B"/><text x="472" y="227" text-anchor="middle" font-family="Inter,sans-serif" font-size="9" font-weight="600">PARTIAL</text><circle cx="576" cy="170" r="10" fill="#FEF3C7" stroke="#F59E0B" stroke-width="2"/><line x1="588" y1="170" x2="668" y2="170" stroke="#4A5568" stroke-width="2" marker-end="url(#arrow)"/><text x="576" y="138" text-anchor="middle" font-family="Inter,sans-serif" font-size="11" font-weight="600" fill="#1A202C">Book</text><text x="576" y="202" text-anchor="middle" font-family="Inter,sans-serif" font-size="10" fill="#4A5568">Amelia booking</text><rect x="538" y="214" width="76" height="18" rx="9" fill="#FEF3C7" stroke="#F59E0B"/><text x="576" y="227" text-anchor="middle" font-family="Inter,sans-serif" font-size="9" font-weight="600">PARTIAL</text><circle cx="680" cy="170" r="10" fill="#FEF3C7" stroke="#F59E0B" stroke-width="2"/><line x1="692" y1="170" x2="772" y2="170" stroke="#4A5568" stroke-width="2" marker-end="url(#arrow)"/><text x="680" y="138" text-anchor="middle" font-family="Inter,sans-serif" font-size="11" font-weight="600" fill="#1A202C">Pay</text><text x="680" y="202" text-anchor="middle" font-family="Inter,sans-serif" font-size="10" fill="#4A5568">WooCommerce</text><rect x="642" y="214" width="76" height="18" rx="9" fill="#FEF3C7" stroke="#F59E0B"/><text x="680" y="227" text-anchor="middle" font-family="Inter,sans-serif" font-size="9" font-weight="600">PARTIAL</text><circle cx="784" cy="170" r="10" fill="#FEF3C7" stroke="#F59E0B" stroke-width="2"/><line x1="796" y1="170" x2="876" y2="170" stroke="#4A5568" stroke-width="2" marker-end="url(#arrow)"/><text x="784" y="138" text-anchor="middle" font-family="Inter,sans-serif" font-size="11" font-weight="600" fill="#1A202C">Track</text><text x="784" y="202" text-anchor="middle" font-family="Inter,sans-serif" font-size="10" fill="#4A5568">Parent dashboard</text><rect x="746" y="214" width="76" height="18" rx="9" fill="#FEF3C7" stroke="#F59E0B"/><text x="784" y="227" text-anchor="middle" font-family="Inter,sans-serif" font-size="9" font-weight="600">PARTIAL</text><circle cx="888" cy="170" r="10" fill="#FEF3C7" stroke="#F59E0B" stroke-width="2"/><text x="888" y="138" text-anchor="middle" font-family="Inter,sans-serif" font-size="11" font-weight="600" fill="#1A202C">Review</text><text x="888" y="202" text-anchor="middle" font-family="Inter,sans-serif" font-size="10" fill="#4A5568">Ratings display</text><rect x="850" y="214" width="76" height="18" rx="9" fill="#FEF3C7" stroke="#F59E0B"/><text x="888" y="227" text-anchor="middle" font-family="Inter,sans-serif" font-size="9" font-weight="600">PARTIAL</text>
</svg>
